# xmcd CD database file generated by OrangeCD 6.1
#
# Track frame offsets:
#	150
#	11145
#	22172
#	35703
#	46504
#	57934
#	72027
#	80842
#	95652
#	113571
#	129321
#	143843
#	158577
#	170448
#	179504
#	193246
#	214899
#	239215
#	249777
#	265024
#	281491
#	292935
#	305576
#
# Disc length: 4274 seconds
#
# Revision: 0
# Processed by: cddbd v1.5.2PL0 Copyright (c) Steve Scherf et al.
# Submitted via: OrangeCD 6.1
#
DISCID=4e10b017
DTITLE=Various Artist - Country Collection
DYEAR=2007
DGENRE=Country
TTITLE0=Dottie West - A Lesson in Leaving
TTITLE1=Mickey Gilley - A World of My Own
TTITLE2=Ferlin Husky - Baby
TTITLE3=Ferlin Husky - Baby for You
TTITLE4=Mickey Gilley - Blaze of Glory
TTITLE5=Phil Carmen - Born a Rider
TTITLE6=Sandy Posey - Born a Woman
TTITLE7=Billie Jo Spears - Crystal Chandeliers
TTITLE8=Rick Nelson - Garden Party
TTITLE9=Kathy Mattea - Heart of the Country
TTITLE10=The Nitty Gritty Dirt Band - Home Again in My Heart
TTITLE11=Connie Smith - I Never Knew (What That Song Meant Before)
TTITLE12=Lee Greenwood - I.O.U.
TTITLE13=? - In My Life
TTITLE14=? - Just an Ordinary Day
TTITLE15=Phil Carmen - Just Like a Woman
TTITLE16=Phil Carmen - Moonshine Still
TTITLE17=T.G. Sheppard - Only One You
TTITLE18=Ferlin Husky - Phantom 309
TTITLE19=Gail Davies - Someone Is Looking for Someone Like You
TTITLE20=Tina Turner - Soul Deep
TTITLE21=Lee Greenwood - Thank You for Changing My Life
TTITLE22=Tanya Tucker - What's Your Mama's Name
EXTD=
EXTT0=
EXTT1=
EXTT2=
EXTT3=
EXTT4=
EXTT5=
EXTT6=
EXTT7=
EXTT8=
EXTT9=
EXTT10=
EXTT11=
EXTT12=
EXTT13=
EXTT14=
EXTT15=
EXTT16=
EXTT17=
EXTT18=
EXTT19=
EXTT20=
EXTT21=
EXTT22=
PLAYORDER=
